<svg xmlns="http://www.w3.org/2000/svg" xmlns:xlink="http://www.w3.org/1999/xlink" width="1080" zoomAndPan="magnify" viewBox="0 0 810 809.999993" height="1080" preserveAspectRatio="xMidYMid meet" version="1.0"><defs><clipPath id="id1"><path d="M 512 317 L 526 317 L 526 331 L 512 331 Z M 512 317 " clip-rule="nonzero"/></clipPath><clipPath id="id2"><path d="M 535.109375 331.476562 C 544.648438 329.316406 549.753906 292.816406 539.253906 277.101562 C 528.75 261.378906 500.746094 243.902344 500.746094 243.902344 C 500.746094 243.902344 498.523438 261.796875 498.269531 272.992188 C 497.734375 296.203125 497.585938 297.085938 498.824219 310.585938 C 500.0625 324.082031 512.609375 336.558594 535.109375 331.476562 Z M 535.109375 331.476562 " clip-rule="nonzero"/></clipPath><clipPath id="id3"><path d="M 514 291 L 538 291 L 538 314.960938 L 514 314.960938 Z M 514 291 " clip-rule="nonzero"/></clipPath><clipPath id="id4"><path d="M 535.109375 331.476562 C 544.648438 329.316406 549.753906 292.816406 539.253906 277.101562 C 528.75 261.378906 500.746094 243.902344 500.746094 243.902344 C 500.746094 243.902344 498.523438 261.796875 498.269531 272.992188 C 497.734375 296.203125 497.585938 297.085938 498.824219 310.585938 C 500.0625 324.082031 512.609375 336.558594 535.109375 331.476562 Z M 535.109375 331.476562 " clip-rule="nonzero"/></clipPath><clipPath id="id5"><path d="M 497 285 L 516.921875 285 L 516.921875 306.929688 L 497 306.929688 Z M 497 285 " clip-rule="nonzero"/></clipPath><clipPath id="id6"><path d="M 535.109375 331.476562 C 544.648438 329.316406 549.753906 292.816406 539.253906 277.101562 C 528.75 261.378906 500.746094 243.902344 500.746094 243.902344 C 500.746094 243.902344 498.523438 261.796875 498.269531 272.992188 C 497.734375 296.203125 497.585938 297.085938 498.824219 310.585938 C 500.0625 324.082031 512.609375 336.558594 535.109375 331.476562 Z M 535.109375 331.476562 " clip-rule="nonzero"/></clipPath><clipPath id="id7"><path d="M 527.621094 258.75 L 546 258.75 L 546 285.515625 L 527.621094 285.515625 Z M 527.621094 258.75 " clip-rule="nonzero"/></clipPath><clipPath id="id8"><path d="M 535.109375 331.476562 C 544.648438 329.316406 549.753906 292.816406 539.253906 277.101562 C 528.75 261.378906 500.746094 243.902344 500.746094 243.902344 C 500.746094 243.902344 498.523438 261.796875 498.269531 272.992188 C 497.734375 296.203125 497.585938 297.085938 498.824219 310.585938 C 500.0625 324.082031 512.609375 336.558594 535.109375 331.476562 Z M 535.109375 331.476562 " clip-rule="nonzero"/></clipPath><clipPath id="id9"><path d="M 526 276.148438 L 538 276.148438 L 538 289 L 526 289 Z M 526 276.148438 " clip-rule="nonzero"/></clipPath><clipPath id="id10"><path d="M 535.109375 331.476562 C 544.648438 329.316406 549.753906 292.816406 539.253906 277.101562 C 528.75 261.378906 500.746094 243.902344 500.746094 243.902344 C 500.746094 243.902344 498.523438 261.796875 498.269531 272.992188 C 497.734375 296.203125 497.585938 297.085938 498.824219 310.585938 C 500.0625 324.082031 512.609375 336.558594 535.109375 331.476562 Z M 535.109375 331.476562 " clip-rule="nonzero"/></clipPath><clipPath id="id11"><path d="M 540 295 L 546 295 L 546 302.914062 L 540 302.914062 Z M 540 295 " clip-rule="nonzero"/></clipPath><clipPath id="id12"><path d="M 535.109375 331.476562 C 544.648438 329.316406 549.753906 292.816406 539.253906 277.101562 C 528.75 261.378906 500.746094 243.902344 500.746094 243.902344 C 500.746094 243.902344 498.523438 261.796875 498.269531 272.992188 C 497.734375 296.203125 497.585938 297.085938 498.824219 310.585938 C 500.0625 324.082031 512.609375 336.558594 535.109375 331.476562 Z M 535.109375 331.476562 " clip-rule="nonzero"/></clipPath><clipPath id="id13"><path d="M 498 311 L 507.558594 311 L 507.558594 320.3125 L 498 320.3125 Z M 498 311 " clip-rule="nonzero"/></clipPath><clipPath id="id14"><path d="M 535.109375 331.476562 C 544.648438 329.316406 549.753906 292.816406 539.253906 277.101562 C 528.75 261.378906 500.746094 243.902344 500.746094 243.902344 C 500.746094 243.902344 498.523438 261.796875 498.269531 272.992188 C 497.734375 296.203125 497.585938 297.085938 498.824219 310.585938 C 500.0625 324.082031 512.609375 336.558594 535.109375 331.476562 Z M 535.109375 331.476562 " clip-rule="nonzero"/></clipPath><clipPath id="id15"><path d="M 532 320.3125 L 538 320.3125 L 538 328 L 532 328 Z M 532 320.3125 " clip-rule="nonzero"/></clipPath><clipPath id="id16"><path d="M 535.109375 331.476562 C 544.648438 329.316406 549.753906 292.816406 539.253906 277.101562 C 528.75 261.378906 500.746094 243.902344 500.746094 243.902344 C 500.746094 243.902344 498.523438 261.796875 498.269531 272.992188 C 497.734375 296.203125 497.585938 297.085938 498.824219 310.585938 C 500.0625 324.082031 512.609375 336.558594 535.109375 331.476562 Z M 535.109375 331.476562 " clip-rule="nonzero"/></clipPath><clipPath id="id17"><path d="M 497 243 L 516 243 L 516 265 L 497 265 Z M 497 243 " clip-rule="nonzero"/></clipPath><clipPath id="id18"><path d="M 535.109375 331.476562 C 544.648438 329.316406 549.753906 292.816406 539.253906 277.101562 C 528.75 261.378906 500.746094 243.902344 500.746094 243.902344 C 500.746094 243.902344 498.523438 261.796875 498.269531 272.992188 C 497.734375 296.203125 497.585938 297.085938 498.824219 310.585938 C 500.0625 324.082031 512.609375 336.558594 535.109375 331.476562 Z M 535.109375 331.476562 " clip-rule="nonzero"/></clipPath><clipPath id="id19"><path d="M 427.957031 223 L 498 223 L 498 351 L 427.957031 351 Z M 427.957031 223 " clip-rule="nonzero"/></clipPath><clipPath id="id20"><path d="M 566 271 L 607.875 271 L 607.875 466.714844 L 566 466.714844 Z M 566 271 " clip-rule="nonzero"/></clipPath><clipPath id="id21"><path d="M 456.730469 271 L 571 271 L 571 466.714844 L 456.730469 466.714844 Z M 456.730469 271 " clip-rule="nonzero"/></clipPath><clipPath id="id22"><path d="M 251 163 L 527 163 L 527 472 L 251 472 Z M 251 163 " clip-rule="nonzero"/></clipPath><clipPath id="id23"><path d="M 250.960938 231.582031 L 468.65625 163.816406 L 552.46875 433.074219 L 334.773438 500.835938 Z M 250.960938 231.582031 " clip-rule="nonzero"/></clipPath><clipPath id="id24"><path d="M 250.960938 231.582031 L 468.65625 163.816406 L 552.46875 433.074219 L 334.773438 500.835938 Z M 250.960938 231.582031 " clip-rule="nonzero"/></clipPath><clipPath id="id25"><path d="M 250.960938 231.582031 L 468.65625 163.816406 L 552.46875 433.074219 L 334.773438 500.835938 Z M 250.960938 231.582031 " clip-rule="nonzero"/></clipPath><clipPath id="id26"><path d="M 142.816406 188.210938 L 666 188.210938 L 666 490 L 142.816406 490 Z M 142.816406 188.210938 " clip-rule="nonzero"/></clipPath><clipPath id="id27"><path d="M 304 497 L 428 497 L 428 620.210938 L 304 620.210938 Z M 304 497 " clip-rule="nonzero"/></clipPath><clipPath id="id28"><path d="M 491 497 L 614 497 L 614 620.210938 L 491 620.210938 Z M 491 497 " clip-rule="nonzero"/></clipPath></defs><path fill="#1576aa" d="M 498.054688 196.449219 C 498.054688 196.449219 497.894531 185.648438 498.933594 183.066406 C 499.96875 180.480469 501.695312 176.03125 508.375 175.210938 C 512.230469 174.734375 519 176.65625 519.835938 179.355469 C 520.671875 182.058594 524.628906 192.925781 524.628906 192.925781 C 524.628906 192.925781 500.589844 195.910156 498.054688 196.449219 " fill-opacity="1" fill-rule="nonzero"/><path fill="#126591" d="M 508.375 175.210938 C 508.375 175.210938 510.605469 175.195312 510.929688 176.8125 C 511.257812 178.429688 514.15625 190.835938 514.15625 190.835938 L 524.554688 192.332031 L 520.023438 179.941406 C 520.023438 179.941406 519.734375 177.964844 517.386719 176.996094 C 515.039062 176.023438 512.289062 174.820312 508.375 175.210938 " fill-opacity="1" fill-rule="nonzero"/><path fill="#136b9b" d="M 510.871094 189.421875 L 508.800781 177.734375 C 508.800781 177.734375 509.417969 188.894531 509.3125 190.085938 L 510.871094 189.421875 " fill-opacity="1" fill-rule="nonzero"/><path fill="#136b9b" d="M 508.429688 190.222656 L 506.363281 178.527344 C 506.363281 178.527344 506.972656 189.695312 506.871094 190.882812 L 508.429688 190.222656 " fill-opacity="1" fill-rule="nonzero"/><path fill="#136b9b" d="M 506.539062 191.265625 L 504.472656 179.574219 C 504.472656 179.574219 505.082031 190.742188 504.976562 191.929688 L 506.539062 191.265625 " fill-opacity="1" fill-rule="nonzero"/><path fill="#136b9b" d="M 504.667969 192.816406 L 502.601562 181.132812 C 502.601562 181.132812 503.210938 192.292969 503.105469 193.484375 L 504.667969 192.816406 " fill-opacity="1" fill-rule="nonzero"/><path fill="#136b9b" d="M 502.359375 195.035156 L 500.652344 183.328125 C 500.652344 183.328125 501.230469 194.496094 501.164062 195.6875 L 502.359375 195.035156 " fill-opacity="1" fill-rule="nonzero"/><path fill="#136b9b" d="M 501.058594 199.15625 L 499.355469 187.449219 C 499.355469 187.449219 499.9375 198.613281 499.863281 199.804688 L 501.058594 199.15625 " fill-opacity="1" fill-rule="nonzero"/><path fill="#e8f8fe" d="M 500.828125 193.414062 C 506.472656 189.050781 515 184.8125 524.277344 189.417969 C 535.949219 195.210938 541.023438 203.925781 543.546875 213.789062 C 545.46875 221.273438 544.808594 231.457031 550.683594 244.992188 C 551.050781 245.832031 551.375 246.757812 551.792969 247.59375 C 554.492188 253.042969 558.1875 258.320312 560.710938 262.96875 C 569.902344 279.871094 572.742188 292.714844 569.832031 312.75 C 568.28125 323.402344 563.847656 330.433594 558.898438 335.753906 C 557.566406 337.183594 557.757812 339.539062 556.085938 340.550781 C 552.292969 342.855469 547.582031 344.066406 541.722656 344.097656 C 523.71875 344.195312 497.042969 342.066406 493.78125 324.199219 C 490.527344 306.386719 492.648438 255.960938 493.539062 232.910156 C 494.4375 209.859375 495.191406 197.773438 500.828125 193.414062 Z M 529.398438 235.550781 C 531.996094 238.996094 536.101562 241.199219 536.101562 241.199219 C 535.976562 207.839844 525.015625 203.554688 525.015625 203.554688 C 529.175781 214.570312 529.398438 235.550781 529.398438 235.550781 " fill-opacity="1" fill-rule="nonzero"/><path fill="#cfeffc" d="M 547.351562 235.167969 C 548.523438 240.160156 550.683594 244.992188 550.683594 244.992188 C 553.34375 252.386719 559.058594 256.984375 563.574219 262.980469 C 575.140625 278.351562 575.605469 292.722656 572.691406 312.761719 C 570.988281 324.484375 567.394531 333.484375 560.136719 336.328125 C 558.59375 336.933594 560.078125 339.140625 557.457031 341.089844 C 555.292969 342.691406 548.910156 343.695312 545.0625 343.945312 C 521.628906 345.476562 501.070312 338.164062 498.351562 335.203125 C 496.882812 333.59375 497.558594 332.316406 496.707031 331.199219 C 495.386719 329.46875 498.320312 332.066406 500.175781 332.917969 C 524.089844 343.882812 530.757812 340.796875 540.296875 339.328125 C 550.058594 337.824219 554.921875 325.699219 556.390625 311.898438 C 558.105469 295.835938 557.476562 273.324219 547.023438 255.441406 C 546.484375 254.515625 545.558594 243.667969 545.234375 237.160156 C 544.722656 226.835938 543.378906 213.433594 543.855469 215.683594 C 544.9375 220.824219 546.316406 230.738281 547.351562 235.167969 " fill-opacity="1" fill-rule="nonzero"/><path fill="#126591" d="M 535.109375 331.476562 C 544.648438 329.316406 549.753906 292.816406 539.253906 277.101562 C 528.75 261.378906 500.746094 243.902344 500.746094 243.902344 C 500.746094 243.902344 498.523438 261.796875 498.269531 272.992188 C 497.734375 296.203125 497.585938 297.085938 498.824219 310.585938 C 500.0625 324.082031 512.609375 336.558594 535.109375 331.476562 " fill-opacity="1" fill-rule="nonzero"/><g clip-path="url(#id1)"><g clip-path="url(#id2)"><path fill="#1476c6" d="M 512.699219 323.425781 C 513.273438 327.105469 516.535156 330.289062 520.023438 330.433594 C 523.566406 330.585938 525.839844 327.550781 525.0625 323.753906 C 524.304688 320.074219 520.960938 317.128906 517.621094 317.09375 C 514.332031 317.058594 512.140625 319.855469 512.699219 323.425781 " fill-opacity="1" fill-rule="nonzero"/></g></g><g clip-path="url(#id3)"><g clip-path="url(#id4)"><path fill="#1476c6" d="M 514.410156 302.847656 C 515.503906 309.054688 521.503906 314.339844 527.898438 314.410156 C 534.449219 314.484375 538.503906 309.09375 536.878906 302.625 C 535.320312 296.421875 529.121094 291.726562 523.101562 291.90625 C 517.214844 292.082031 513.359375 296.886719 514.410156 302.847656 " fill-opacity="1" fill-rule="nonzero"/></g></g><g clip-path="url(#id5)"><g clip-path="url(#id6)"><path fill="#1476c6" d="M 496.164062 295.703125 C 496.835938 301.414062 502.015625 306.195312 507.816406 306.171875 C 513.746094 306.152344 517.710938 301.144531 516.59375 295.203125 C 515.515625 289.507812 510.140625 285.242188 504.652344 285.476562 C 499.277344 285.710938 495.511719 290.203125 496.164062 295.703125 " fill-opacity="1" fill-rule="nonzero"/></g></g><g clip-path="url(#id7)"><g clip-path="url(#id8)"><path fill="#1476c6" d="M 528.085938 272.421875 C 529.585938 279.699219 537.570312 285.617188 546.085938 285.273438 C 554.875 284.910156 560.136719 278.09375 557.707031 270.457031 C 555.414062 263.230469 547.105469 258.238281 539.246094 258.945312 C 531.609375 259.628906 526.671875 265.515625 528.085938 272.421875 " fill-opacity="1" fill-rule="nonzero"/></g></g><g clip-path="url(#id9)"><g clip-path="url(#id10)"><path fill="#1476c6" d="M 526.515625 280.300781 C 525.632812 283.332031 527.335938 286.996094 530.398438 288.429688 C 533.5 289.882812 536.6875 288.433594 537.449219 285.25 C 538.191406 282.15625 536.332031 278.632812 533.355469 277.332031 C 530.417969 276.042969 527.382812 277.351562 526.515625 280.300781 " fill-opacity="1" fill-rule="nonzero"/></g></g><g clip-path="url(#id11)"><g clip-path="url(#id12)"><path fill="#1476c6" d="M 540.160156 298.6875 C 540.53125 300.625 542.535156 302.179688 544.648438 302.105469 C 546.796875 302.027344 548.160156 300.308594 547.675781 298.316406 C 547.199219 296.375 545.15625 294.949219 543.125 295.070312 C 541.117188 295.195312 539.800781 296.792969 540.160156 298.6875 " fill-opacity="1" fill-rule="nonzero"/></g></g><g clip-path="url(#id13)"><g clip-path="url(#id14)"><path fill="#1476c6" d="M 498.152344 316.03125 C 498.609375 318.402344 501.042969 320.292969 503.621094 320.199219 C 506.238281 320.105469 507.898438 318.015625 507.304688 315.582031 C 506.726562 313.226562 504.242188 311.480469 501.765625 311.628906 C 499.324219 311.78125 497.714844 313.726562 498.152344 316.03125 " fill-opacity="1" fill-rule="nonzero"/></g></g><g clip-path="url(#id15)"><g clip-path="url(#id16)"><path fill="#1476c6" d="M 532.328125 322.332031 C 531.589844 323.832031 532.136719 325.898438 533.597656 326.933594 C 535.089844 327.976562 536.878906 327.519531 537.574219 325.929688 C 538.25 324.382812 537.601562 322.367188 536.171875 321.417969 C 534.757812 320.472656 533.050781 320.875 532.328125 322.332031 " fill-opacity="1" fill-rule="nonzero"/></g></g><g clip-path="url(#id17)"><g clip-path="url(#id18)"><path fill="#1476c6" d="M 490.644531 253.324219 C 491.878906 259.785156 498.523438 264.957031 505.5625 264.699219 C 512.707031 264.445312 517.234375 258.71875 515.621094 252.09375 C 514.054688 245.648438 507.253906 240.886719 500.496094 241.304688 C 493.828125 241.71875 489.445312 247.03125 490.644531 253.324219 " fill-opacity="1" fill-rule="nonzero"/></g></g><path fill="#cfeffc" d="M 535.453125 250.65625 L 521.546875 238.355469 C 523.566406 221.953125 518.039062 200.335938 518.039062 200.335938 C 520.8125 201 523.109375 202.101562 525.015625 203.554688 C 525.015625 203.554688 527.660156 210.757812 528.597656 221.496094 C 529.027344 226.417969 529.398438 235.550781 529.398438 235.550781 C 531.023438 237.472656 536.101562 241.199219 536.101562 241.199219 C 535.980469 244.410156 535.453125 250.65625 535.453125 250.65625 " fill-opacity="1" fill-rule="nonzero"/><path fill="#0f587f" d="M 530.238281 297.804688 C 530.207031 296.835938 530.417969 296.453125 530.945312 296.664062 C 531.484375 296.871094 531.722656 297.433594 531.753906 298.402344 L 532.3125 315.097656 C 532.351562 316.078125 532.136719 316.464844 531.605469 316.253906 C 531.070312 316.042969 530.824219 315.480469 530.792969 314.496094 L 530.6875 311.300781 L 529.332031 310.769531 L 529.441406 314.023438 C 529.503906 315.949219 530.246094 317.464844 531.660156 318.03125 C 533.082031 318.59375 533.742188 317.632812 533.679688 315.703125 L 533.101562 298.875 C 533.039062 296.960938 532.296875 295.464844 530.886719 294.910156 C 529.476562 294.351562 528.824219 295.300781 528.886719 297.207031 L 528.984375 300.1875 L 530.339844 300.71875 L 530.238281 297.804688 " fill-opacity="1" fill-rule="nonzero"/><path fill="#0f587f" d="M 527.832031 293.886719 L 526.484375 293.347656 L 527.15625 314.300781 L 524.914062 313.414062 L 524.972656 315.1875 L 528.574219 316.613281 L 527.832031 293.886719 " fill-opacity="1" fill-rule="nonzero"/><path fill="#0f587f" d="M 523.050781 291.996094 L 519.476562 290.582031 L 519.535156 292.335938 L 521.753906 293.214844 L 522.011719 301.457031 L 519.882812 300.617188 L 519.9375 302.371094 L 522.066406 303.21875 L 522.351562 312.394531 L 520.109375 311.503906 L 520.167969 313.277344 L 523.761719 314.703125 L 523.050781 291.996094 " fill-opacity="1" fill-rule="nonzero"/><path fill="#0f587f" d="M 515.21875 305.074219 L 517.597656 306.019531 L 518.335938 312.550781 L 519.695312 313.089844 L 516.847656 289.542969 L 515.007812 288.816406 L 513.496094 310.628906 L 514.847656 311.164062 Z M 515.957031 290.734375 L 515.996094 290.75 L 517.402344 304.195312 L 515.3125 303.371094 L 515.957031 290.734375 " fill-opacity="1" fill-rule="nonzero"/><path fill="#0f587f" d="M 508.425781 286.210938 L 507.246094 285.746094 L 507.855469 308.390625 L 509.78125 309.152344 L 510.921875 289.667969 L 510.960938 289.683594 L 511.523438 309.84375 L 512.714844 310.320312 L 512.074219 287.65625 L 510.117188 286.882812 L 508.996094 305.597656 L 508.953125 305.582031 L 508.425781 286.210938 " fill-opacity="1" fill-rule="nonzero"/><path fill="#0f587f" d="M 504.90625 284.820312 L 503.398438 284.226562 L 504.007812 301.40625 L 505.1875 301.875 Z M 505.355469 305.023438 L 504 304.488281 L 504.0625 306.882812 L 505.417969 307.417969 L 505.355469 305.023438 " fill-opacity="1" fill-rule="nonzero"/><path fill="#0f587f" d="M 521.429688 274.445312 C 521.410156 273.828125 521.507812 273.410156 522.03125 273.585938 C 522.550781 273.765625 522.683594 274.265625 522.699219 274.882812 L 522.753906 276.546875 C 522.769531 277.054688 522.714844 277.53125 522.550781 277.875 L 520.929688 281.164062 C 520.699219 281.613281 520.574219 282.222656 520.59375 282.910156 L 520.683594 285.339844 C 520.730469 286.78125 521.414062 287.824219 522.496094 288.210938 C 523.699219 288.636719 524.257812 288.148438 524.210938 286.59375 L 524.148438 284.480469 L 523.054688 284.09375 L 523.117188 286.125 C 523.140625 286.84375 522.941406 287.195312 522.460938 287.023438 C 522.015625 286.867188 521.785156 286.363281 521.765625 285.644531 L 521.691406 283.488281 C 521.675781 282.949219 521.746094 282.574219 521.957031 282.121094 L 523.457031 279.035156 C 523.738281 278.464844 523.890625 278 523.867188 277.195312 L 523.808594 275.285156 C 523.765625 273.722656 523.117188 272.742188 521.996094 272.355469 C 520.75 271.925781 520.277344 272.527344 520.324219 273.972656 L 520.390625 275.988281 L 521.492188 276.367188 L 521.429688 274.445312 " fill-opacity="1" fill-rule="nonzero"/><path fill="#0f587f" d="M 516.476562 270.585938 L 515.386719 270.210938 L 515.933594 283.71875 C 516.003906 285.414062 517 286.246094 517.929688 286.578125 C 518.828125 286.898438 519.789062 286.761719 519.734375 285.066406 L 519.246094 271.542969 L 518.144531 271.160156 L 518.628906 284.238281 C 518.671875 285.339844 518.40625 285.582031 517.867188 285.386719 C 517.3125 285.195312 517.035156 284.757812 516.996094 283.65625 L 516.476562 270.585938 " fill-opacity="1" fill-rule="nonzero"/><path fill="#0f587f" d="M 514.105469 269.777344 L 512.371094 269.175781 C 510.964844 268.695312 510.585938 269.167969 510.667969 270.964844 L 510.851562 274.804688 C 510.933594 276.574219 511.371094 277.316406 512.757812 277.800781 L 513.394531 278.027344 L 513.699219 284.941406 L 514.769531 285.324219 Z M 512.816406 276.636719 C 512.324219 276.46875 511.972656 276.175781 511.9375 275.375 L 511.742188 271.140625 C 511.707031 270.332031 512.046875 270.277344 512.539062 270.445312 L 513.066406 270.628906 L 513.34375 276.824219 L 512.816406 276.636719 " fill-opacity="1" fill-rule="nonzero"/><path fill="#0f587f" d="M 509.929688 268.339844 L 507.0625 267.355469 L 507.125 268.578125 L 508.90625 269.195312 L 509.1875 274.90625 L 507.5 274.3125 L 507.5625 275.515625 L 509.25 276.105469 L 509.554688 282.300781 L 507.804688 281.679688 L 507.863281 282.855469 L 510.679688 283.859375 L 509.929688 268.339844 " fill-opacity="1" fill-rule="nonzero"/><path fill="#0f587f" d="M 503.96875 275.175781 C 503.925781 274.433594 504.257812 274.355469 504.753906 274.535156 L 505.464844 274.78125 L 505.867188 282.144531 L 506.921875 282.523438 L 506.097656 267.019531 L 504.089844 266.335938 C 503.070312 265.980469 502.449219 266.007812 502.539062 267.574219 L 502.769531 271.542969 C 502.839844 272.746094 503.203125 273.273438 504.027344 273.625 L 504.027344 273.664062 C 503.273438 273.46875 502.839844 273.609375 502.902344 274.679688 L 503.285156 281.21875 L 504.335938 281.597656 Z M 504.683594 273.332031 C 504.1875 273.152344 503.886719 272.859375 503.832031 271.933594 L 503.636719 268.421875 C 503.582031 267.511719 503.933594 267.480469 504.488281 267.667969 L 505.085938 267.878906 L 505.394531 273.578125 L 504.683594 273.332031 " fill-opacity="1" fill-rule="nonzero"/><path fill="#ffffff" d="M 529.023438 296.625 C 528.984375 295.65625 529.195312 295.273438 529.726562 295.480469 C 530.261719 295.695312 530.5 296.25 530.53125 297.222656 L 531.097656 313.921875 C 531.128906 314.902344 530.917969 315.285156 530.386719 315.074219 C 529.847656 314.863281 529.609375 314.296875 529.578125 313.320312 L 529.464844 310.125 L 528.113281 309.585938 L 528.222656 312.84375 C 528.285156 314.773438 529.023438 316.285156 530.445312 316.851562 C 531.863281 317.414062 532.523438 316.457031 532.457031 314.523438 L 531.886719 297.699219 C 531.816406 295.785156 531.082031 294.289062 529.671875 293.730469 C 528.257812 293.171875 527.605469 294.117188 527.667969 296.03125 L 527.761719 299.003906 L 529.117188 299.542969 L 529.023438 296.625 " fill-opacity="1" fill-rule="nonzero"/><path fill="#ffffff" d="M 526.609375 292.707031 L 525.261719 292.171875 L 525.941406 313.125 L 523.699219 312.238281 L 523.753906 314.003906 L 527.351562 315.429688 L 526.609375 292.707031 " fill-opacity="1" fill-rule="nonzero"/><path fill="#ffffff" d="M 521.828125 290.820312 L 518.257812 289.402344 L 518.3125 291.152344 L 520.539062 292.035156 L 520.792969 300.28125 L 518.660156 299.433594 L 518.71875 301.195312 L 520.84375 302.039062 L 521.132812 311.210938 L 518.890625 310.324219 L 518.949219 312.097656 L 522.542969 313.523438 L 521.828125 290.820312 " fill-opacity="1" fill-rule="nonzero"/><path fill="#ffffff" d="M 514 303.894531 L 516.378906 304.839844 L 517.121094 311.371094 L 518.472656 311.90625 L 515.632812 288.367188 L 513.792969 287.640625 L 512.277344 309.449219 L 513.628906 309.984375 Z M 514.738281 289.554688 L 514.773438 289.570312 L 516.179688 303.015625 L 514.089844 302.195312 L 514.738281 289.554688 " fill-opacity="1" fill-rule="nonzero"/><path fill="#ffffff" d="M 507.207031 285.035156 L 506.027344 284.566406 L 506.632812 307.207031 L 508.5625 307.972656 L 509.699219 288.492188 L 509.742188 288.507812 L 510.308594 308.667969 L 511.5 309.136719 L 510.855469 286.480469 L 508.902344 285.707031 L 507.777344 304.417969 L 507.738281 304.402344 L 507.207031 285.035156 " fill-opacity="1" fill-rule="nonzero"/><path fill="#ffffff" d="M 503.6875 283.644531 L 502.175781 283.042969 L 502.785156 300.222656 L 503.96875 300.699219 Z M 504.136719 303.847656 L 502.785156 303.308594 L 502.847656 305.703125 L 504.199219 306.242188 L 504.136719 303.847656 " fill-opacity="1" fill-rule="nonzero"/><path fill="#f89a0f" d="M 520.636719 273.765625 C 520.621094 273.152344 520.71875 272.730469 521.238281 272.90625 C 521.761719 273.089844 521.890625 273.59375 521.910156 274.210938 L 521.964844 275.871094 C 521.980469 276.375 521.925781 276.851562 521.753906 277.199219 L 520.140625 280.484375 C 519.910156 280.933594 519.785156 281.542969 519.804688 282.234375 L 519.890625 284.664062 C 519.941406 286.109375 520.625 287.148438 521.707031 287.535156 C 522.910156 287.964844 523.46875 287.472656 523.421875 285.921875 L 523.359375 283.804688 L 522.261719 283.414062 L 522.328125 285.445312 C 522.351562 286.164062 522.148438 286.515625 521.671875 286.347656 C 521.226562 286.191406 520.996094 285.691406 520.972656 284.964844 L 520.902344 282.808594 C 520.886719 282.277344 520.957031 281.898438 521.167969 281.441406 L 522.667969 278.355469 C 522.945312 277.785156 523.097656 277.324219 523.078125 276.515625 L 523.019531 274.613281 C 522.972656 273.050781 522.328125 272.0625 521.199219 271.675781 C 519.957031 271.25 519.480469 271.847656 519.535156 273.300781 L 519.601562 275.308594 L 520.703125 275.695312 L 520.636719 273.765625 " fill-opacity="1" fill-rule="nonzero"/><path fill="#f89a0f" d="M 515.6875 269.914062 L 514.589844 269.535156 L 515.144531 283.039062 C 515.214844 284.734375 516.207031 285.570312 517.136719 285.898438 C 518.035156 286.21875 519 286.085938 518.9375 284.386719 L 518.457031 270.863281 L 517.355469 270.488281 L 517.839844 283.558594 C 517.882812 284.660156 517.617188 284.90625 517.078125 284.710938 C 516.519531 284.515625 516.246094 284.078125 516.199219 282.976562 L 515.6875 269.914062 " fill-opacity="1" fill-rule="nonzero"/><path fill="#f89a0f" d="M 513.316406 269.097656 L 511.582031 268.5 C 510.175781 268.019531 509.796875 268.492188 509.878906 270.285156 L 510.0625 274.132812 C 510.144531 275.894531 510.578125 276.640625 511.964844 277.125 L 512.605469 277.351562 L 512.910156 284.261719 L 513.980469 284.644531 Z M 512.027344 275.960938 C 511.535156 275.789062 511.183594 275.496094 511.148438 274.699219 L 510.953125 270.464844 C 510.917969 269.65625 511.257812 269.597656 511.75 269.769531 L 512.277344 269.949219 L 512.546875 276.144531 L 512.027344 275.960938 " fill-opacity="1" fill-rule="nonzero"/><path fill="#f89a0f" d="M 509.140625 267.664062 L 506.269531 266.675781 L 506.335938 267.90625 L 508.117188 268.523438 L 508.398438 274.226562 L 506.710938 273.632812 L 506.769531 274.835938 L 508.457031 275.433594 L 508.765625 281.628906 L 507.015625 281.003906 L 507.074219 282.183594 L 509.882812 283.1875 L 509.140625 267.664062 " fill-opacity="1" fill-rule="nonzero"/><path fill="#f89a0f" d="M 503.179688 274.503906 C 503.136719 273.753906 503.460938 273.679688 503.964844 273.855469 L 504.667969 274.105469 L 505.078125 281.464844 L 506.128906 281.847656 L 505.308594 266.347656 L 503.300781 265.65625 C 502.277344 265.304688 501.660156 265.328125 501.75 266.902344 L 501.980469 270.863281 C 502.050781 272.066406 502.40625 272.59375 503.234375 272.949219 L 503.238281 272.992188 C 502.484375 272.792969 502.050781 272.933594 502.113281 274 L 502.492188 280.546875 L 503.539062 280.921875 Z M 503.894531 272.652344 C 503.394531 272.480469 503.097656 272.179688 503.042969 271.253906 L 502.847656 267.746094 C 502.792969 266.832031 503.144531 266.800781 503.691406 266.996094 L 504.296875 267.199219 L 504.605469 272.902344 L 503.894531 272.652344 " fill-opacity="1" fill-rule="nonzero"/><g clip-path="url(#id19)"><path fill="#fff200" d="M 431.375 223.085938 L 442.707031 230.675781 C 450.628906 230.488281 470.839844 235.984375 486.765625 263.125 C 502.6875 290.273438 502.621094 331.554688 477.519531 346.371094 C 452.414062 361.1875 462.5625 329.425781 464.882812 320.675781 C 467.203125 311.917969 470.796875 288.296875 460.394531 275.375 C 449.992188 262.453125 439.730469 250.074219 439.125 236.867188 L 428.214844 227.214844 C 428.214844 227.214844 426.652344 222.792969 431.375 223.085938 " fill-opacity="1" fill-rule="nonzero"/></g><path fill="#fcd205" d="M 442.707031 230.675781 C 450.628906 230.488281 470.839844 235.984375 486.765625 263.125 C 502.6875 290.273438 502.621094 331.554688 477.519531 346.371094 C 477.519531 346.371094 473.335938 349.050781 469.648438 350.003906 C 465.957031 350.949219 464.386719 349.730469 464.386719 349.730469 C 464.386719 349.730469 478.519531 344.050781 484.945312 323.402344 C 491.371094 302.753906 485.457031 271.402344 472.640625 256.988281 C 459.824219 242.570312 440.347656 233.613281 440.347656 233.613281 L 442.707031 230.675781 " fill-opacity="1" fill-rule="nonzero"/><path fill="#fee303" d="M 464.386719 349.730469 C 464.386719 349.730469 463.78125 333.335938 467.394531 324.511719 C 471.015625 315.683594 473.980469 290.933594 466.101562 277.53125 C 458.21875 264.125 441.121094 248.640625 440.347656 233.613281 L 439.125 236.867188 C 439.730469 250.074219 449.992188 262.453125 460.394531 275.375 C 470.796875 288.296875 467.203125 311.917969 464.882812 320.675781 C 463.285156 326.691406 457.996094 343.582031 462.996094 348.738281 L 464.386719 349.730469 " fill-opacity="1" fill-rule="nonzero"/><path fill="#edc705" d="M 443.804688 230.6875 C 443.804688 230.6875 441.695312 231.402344 440.828125 233.015625 C 440.828125 233.015625 437.300781 227.734375 429.976562 223.160156 C 429.976562 223.160156 430.691406 223.023438 431.375 223.085938 L 442.707031 230.675781 L 443.804688 230.6875 " fill-opacity="1" fill-rule="nonzero"/><path fill="#b0db1f" d="M 498.984375 234.257812 C 498.984375 234.257812 502.515625 219.796875 508.207031 219.273438 C 513.0625 218.832031 513.949219 222.378906 518.914062 222.148438 C 523.253906 221.941406 517.328125 218.789062 518.519531 218.421875 C 519.820312 218.03125 524.847656 218.609375 524.820312 217.585938 C 524.800781 216.753906 521.519531 215.1875 519.394531 215.125 C 516.390625 215.03125 522.835938 213.859375 521.382812 213.242188 C 520.441406 212.839844 516.894531 213.253906 515.652344 213.324219 C 514.738281 213.382812 512.980469 213.582031 511.953125 213.875 C 502.734375 216.492188 500.695312 221.816406 497.992188 233.453125 L 498.984375 234.257812 " fill-opacity="1" fill-rule="nonzero"/><path fill="#b0db1f" d="M 497.699219 233.855469 C 497.699219 233.855469 497.679688 219.234375 496.167969 215.4375 C 494.730469 211.835938 490.066406 207.867188 495.65625 209.917969 C 496 210.042969 500.164062 205.625 500.667969 210.089844 C 500.75 210.800781 502.121094 210.027344 502.761719 209.925781 C 505.425781 209.539062 505.859375 211.125 502.710938 214.476562 C 501.609375 215.648438 499.28125 217.363281 498.78125 233.9375 L 497.699219 233.855469 " fill-opacity="1" fill-rule="nonzero"/><path fill="#b0db1f" d="M 498.625 240.078125 C 498.625 240.078125 499.367188 223.492188 489.824219 216.394531 C 485.71875 213.339844 482.742188 212.886719 480.488281 213.132812 C 479.136719 213.277344 477.933594 213.417969 477.21875 214.136719 C 476.769531 214.589844 481.613281 214.367188 478.53125 214.96875 C 478.023438 215.066406 476.058594 215.695312 476.074219 216.148438 C 476.105469 216.996094 477.433594 216.621094 478.640625 216.765625 C 479.460938 216.863281 473.757812 219.792969 477.667969 219.667969 C 478.214844 219.652344 482.054688 218.496094 482.636719 218.484375 C 485.304688 218.453125 488.113281 218.554688 489.648438 219.824219 C 493.132812 222.710938 497.390625 228.550781 497.339844 239.785156 L 498.625 240.078125 " fill-opacity="1" fill-rule="nonzero"/><path fill="#92ca24" d="M 507.480469 219.421875 C 507.480469 219.421875 504.03125 221.132812 502.800781 223.054688 C 501.570312 224.972656 498.351562 231.933594 498.351562 231.933594 L 499.605469 232.171875 C 499.605469 232.171875 502.972656 220.664062 507.480469 219.421875 " fill-opacity="1" fill-rule="nonzero"/><path fill="#92ca24" d="M 492.523438 218.933594 C 492.523438 218.933594 494.976562 222.871094 495.054688 223.9375 C 495.132812 225 495.417969 228.109375 495.433594 228.132812 C 495.453125 228.152344 496.238281 230.394531 496.703125 232.59375 L 498.082031 232.398438 C 498.082031 232.398438 496.726562 223.429688 492.523438 218.933594 " fill-opacity="1" fill-rule="nonzero"/><path fill="#92ca24" d="M 500.933594 216.113281 C 500.109375 217.28125 499.25 218.910156 499.070312 220.90625 C 498.582031 226.101562 497.585938 228.15625 497.585938 228.15625 L 497.679688 232.03125 L 499.136719 232.078125 C 499.136719 232.078125 498.933594 225.050781 499.851562 221.34375 C 500.777344 217.644531 500.839844 216.53125 502.171875 215.054688 C 502.171875 215.054688 501.226562 215.699219 500.933594 216.113281 " fill-opacity="1" fill-rule="nonzero"/><path fill="#f79214" d="M 521.167969 252.59375 C 521.167969 252.59375 524.59375 261.703125 523.226562 264.445312 C 521.878906 267.152344 520.988281 264.511719 521.878906 267.152344 C 522.753906 269.765625 523.113281 272.164062 523.078125 274.683594 C 523.039062 277.179688 521.515625 282.957031 520.902344 288.621094 C 520.300781 294.160156 522.097656 296.753906 522.242188 298.308594 C 522.375 299.863281 520.546875 301.808594 520.546875 301.808594 C 520.546875 301.808594 521.113281 307.847656 521.027344 310.933594 C 520.941406 313.976562 520.3125 319.824219 516.839844 321.40625 C 513.367188 322.992188 512.785156 320.570312 512.785156 320.570312 C 512.785156 320.570312 509.261719 317.113281 509.15625 313.8125 C 509.054688 310.460938 504.148438 306.921875 503.523438 302.308594 C 503.523438 302.308594 497.652344 298.859375 497.277344 288.378906 L 489.015625 270.867188 C 489.015625 270.867188 479.867188 260.722656 480.5 237.144531 C 480.636719 232.191406 506.804688 223.78125 515.121094 229.53125 C 515.121094 229.53125 526.316406 242.359375 521.167969 252.59375 " fill-opacity="1" fill-rule="nonzero"/><path fill="#e07914" d="M 510.117188 316.984375 C 511.671875 318.203125 513.769531 320.382812 515.113281 316.046875 C 515.746094 314.003906 515.128906 312.78125 515.808594 311.210938 C 516.5 309.628906 514.875 308.363281 514.085938 306.769531 C 513.285156 305.164062 514.304688 305.195312 514.304688 305.195312 C 514.304688 305.195312 513.9375 303.824219 513.847656 301.515625 C 513.761719 299.179688 512.660156 297.039062 511.339844 294.964844 C 510.003906 292.851562 513.527344 287.917969 513.425781 284.984375 C 513.332031 282.007812 509.898438 278.445312 509.09375 276.289062 C 508.28125 274.117188 509.074219 271.660156 509.117188 270.804688 C 509.164062 269.945312 510.339844 266.242188 508.71875 262.769531 C 507.074219 259.230469 506.957031 256.894531 506.957031 256.894531 L 508.363281 255.734375 C 508.363281 255.734375 506.121094 249.371094 505.882812 248.796875 C 505.648438 248.222656 503.453125 247.527344 506.402344 241.75 C 510.96875 232.824219 505.726562 227.617188 506.261719 227.613281 C 507.914062 227.585938 509.476562 227.6875 510.875 227.941406 C 512.546875 228.242188 513.996094 228.757812 515.121094 229.53125 C 515.121094 229.53125 526.316406 242.359375 521.167969 252.59375 C 521.167969 252.59375 526.601562 261.464844 525.230469 264.199219 C 523.871094 266.90625 522.992188 264.269531 523.871094 266.90625 C 524.734375 269.515625 523.113281 272.164062 523.078125 274.683594 C 523.039062 277.179688 524.398438 281.363281 523.75 287.054688 C 523.117188 292.613281 522.097656 296.753906 522.242188 298.308594 C 522.375 299.863281 522.402344 301.335938 522.402344 301.335938 C 522.402344 301.335938 521.902344 307.640625 521.808594 310.730469 C 521.714844 313.78125 520.3125 319.824219 516.839844 321.40625 C 513.367188 322.992188 512.785156 320.570312 512.785156 320.570312 L 510.117188 316.984375 " fill-opacity="1" fill-rule="nonzero"/><path fill="#f9ab0c" d="M 627.9375 222.636719 L 615.207031 211.832031 L 569.625 310.46875 L 590.316406 312.539062 L 608.503906 269.082031 C 608.503906 269.082031 604.667969 265.269531 607.746094 259.367188 C 610.828125 253.46875 615.082031 253.367188 615.082031 253.367188 L 627.9375 222.636719 " fill-opacity="1" fill-rule="nonzero"/><path fill="#fbc707" d="M 569.625 310.46875 C 569.625 310.46875 537.816406 296.957031 539.789062 257.3125 L 559.351562 245.515625 C 559.351562 245.515625 561.203125 247.828125 563.882812 246.5 C 566.558594 245.167969 569.050781 239.667969 569.050781 239.667969 L 582.890625 231.320312 C 582.890625 231.320312 586.480469 234.648438 592.65625 231.96875 C 598.828125 229.292969 599.113281 221.539062 599.113281 221.539062 L 615.207031 211.832031 L 578.398438 291.488281 L 575.21875 298.355469 L 572.578125 304.082031 L 569.625 310.46875 " fill-opacity="1" fill-rule="nonzero"/><path fill="#f89a0f" d="M 603.992188 236.105469 C 603.992188 236.105469 611.246094 239.917969 607.960938 247.328125 C 604.667969 254.742188 597.210938 250.785156 597.210938 250.785156 L 603.992188 236.105469 " fill-opacity="1" fill-rule="nonzero"/><path fill="#f9a90c" d="M 597.210938 250.785156 C 597.210938 250.785156 595.105469 250.230469 595.292969 246.199219 C 595.519531 241.382812 599.855469 233.976562 603.992188 236.105469 C 603.992188 236.105469 606.234375 239.992188 603.394531 245.441406 C 600.269531 251.4375 597.210938 250.785156 597.210938 250.785156 " fill-opacity="1" fill-rule="nonzero"/><path fill="#f9a90c" d="M 572.5 274.027344 C 571.234375 275.710938 571.078125 278.414062 572.148438 280.070312 C 573.21875 281.734375 575.117188 281.71875 576.378906 280.039062 C 577.644531 278.355469 577.800781 275.652344 576.730469 273.996094 C 575.652344 272.332031 573.761719 272.347656 572.5 274.027344 " fill-opacity="1" fill-rule="nonzero"/><path fill="#f9a90c" d="M 575.554688 246.257812 C 573.800781 248.585938 573.578125 252.351562 575.070312 254.65625 C 576.5625 256.960938 579.191406 256.941406 580.945312 254.609375 C 582.707031 252.273438 582.921875 248.515625 581.433594 246.210938 C 579.945312 243.898438 577.316406 243.925781 575.554688 246.257812 " fill-opacity="1" fill-rule="nonzero"/><path fill="#fab40a" d="M 575.910156 247.601562 C 574.320312 249.710938 574.125 253.121094 575.472656 255.207031 C 576.820312 257.296875 579.203125 257.269531 580.796875 255.160156 C 582.382812 253.050781 582.582031 249.644531 581.234375 247.558594 C 579.886719 245.472656 577.503906 245.492188 575.910156 247.601562 " fill-opacity="1" fill-rule="nonzero"/><path fill="#fab40a" d="M 552.402344 261.203125 C 549.519531 265.03125 549.160156 271.203125 551.605469 274.988281 C 554.050781 278.773438 558.363281 278.738281 561.25 274.90625 C 564.132812 271.082031 564.492188 264.910156 562.046875 261.125 C 559.605469 257.339844 555.289062 257.375 552.402344 261.203125 " fill-opacity="1" fill-rule="nonzero"/><path fill="#f89a0f" d="M 616.648438 227.59375 C 615.683594 230.042969 616.121094 232.511719 617.628906 233.109375 C 619.140625 233.703125 621.148438 232.199219 622.109375 229.746094 C 623.074219 227.300781 622.628906 224.832031 621.125 224.234375 C 619.617188 223.640625 617.609375 225.144531 616.648438 227.59375 " fill-opacity="1" fill-rule="nonzero"/><path fill="#f9a90c" d="M 579.003906 290.171875 C 579.003906 290.171875 573.832031 288.894531 570.433594 294.492188 C 566.402344 301.128906 572.578125 304.082031 572.578125 304.082031 C 572.578125 304.082031 579.542969 305.585938 581.933594 300.0625 C 584.332031 294.535156 579.003906 290.171875 579.003906 290.171875 " fill-opacity="1" fill-rule="nonzero"/><path fill="#f89a0f" d="M 579.003906 290.171875 C 579.003906 290.171875 581.199219 298.9375 572.578125 304.082031 C 572.578125 304.082031 578.730469 306.328125 581.8125 300.558594 C 584.898438 294.792969 579.003906 290.171875 579.003906 290.171875 " fill-opacity="1" fill-rule="nonzero"/><path fill="#fab20b" d="M 572.742188 275.070312 C 571.5625 276.640625 571.417969 279.171875 572.421875 280.71875 C 573.417969 282.269531 575.1875 282.253906 576.371094 280.6875 C 577.550781 279.117188 577.695312 276.589844 576.699219 275.039062 C 575.695312 273.488281 573.925781 273.503906 572.742188 275.070312 " fill-opacity="1" fill-rule="nonzero"/><path fill="#f9a90c" d="M 616.355469 227.972656 C 615.488281 230.167969 615.753906 232.335938 616.941406 232.800781 C 618.132812 233.269531 619.800781 231.863281 620.660156 229.667969 C 621.527344 227.476562 621.261719 225.3125 620.070312 224.84375 C 618.882812 224.378906 617.21875 225.773438 616.355469 227.972656 " fill-opacity="1" fill-rule="nonzero"/><path fill="#dd9d54" d="M 577.640625 176.804688 C 577.640625 176.804688 581.585938 170.777344 578.785156 169.171875 C 575.984375 167.566406 570.101562 163.746094 565.875 165.53125 C 561.644531 167.324219 564.507812 173.414062 564.507812 173.414062 L 577.640625 176.804688 " fill-opacity="1" fill-rule="nonzero"/><path fill="#cd8b3f" d="M 580.304688 170.730469 C 580.304688 170.730469 579.851562 169.789062 578.785156 169.171875 C 578.277344 168.878906 576.875 172.636719 576.875 172.636719 C 576.875 172.636719 570.941406 168.746094 567.5625 168.527344 C 564.691406 168.339844 563.5625 169.269531 563.5625 169.269531 C 563.5625 169.269531 563.636719 171.164062 564.074219 172.292969 C 564.507812 173.414062 578.058594 176.449219 578.058594 176.449219 C 578.058594 176.449219 581.160156 171.898438 580.304688 170.730469 " fill-opacity="1" fill-rule="nonzero"/><path fill="#009aac" d="M 580.210938 269.902344 L 568.945312 324.882812 C 568.945312 324.882812 563.265625 335.769531 537.683594 330.257812 C 517.792969 325.964844 510.71875 321.386719 512.324219 313.628906 C 513.921875 305.863281 521.230469 261.957031 521.230469 261.957031 C 521.230469 261.957031 524.945312 235.230469 544.242188 218.941406 C 563.53125 202.644531 561.695312 176.808594 561.695312 176.808594 C 561.695312 176.808594 559.410156 176.164062 560.101562 173.449219 C 561.226562 168.988281 566.835938 171.335938 570.628906 172.347656 C 574.425781 173.367188 581.65625 175.792969 580.734375 177.472656 C 579.820312 179.152344 580.640625 180.71875 578 180.269531 C 578 180.269531 567.070312 204.804688 574.441406 227.007812 C 581.808594 249.214844 583.683594 253.0625 580.210938 269.902344 " fill-opacity="1" fill-rule="nonzero"/><path fill="#19b3c2" d="M 563.074219 260.828125 C 563.074219 260.828125 556.210938 308.074219 553.726562 308.195312 C 528.644531 309.433594 520.5625 301.242188 520.5625 301.242188 L 528.742188 253.859375 C 528.742188 253.859375 541.808594 250.574219 563.074219 260.828125 " fill-opacity="1" fill-rule="nonzero"/><path fill="#008696" d="M 566.9375 219.582031 C 566.9375 219.582031 575.636719 235.921875 574.296875 250.808594 C 572.953125 265.699219 571.332031 279.824219 568.757812 290.007812 C 566.179688 300.1875 564.964844 319.199219 559.585938 321.832031 C 542.574219 330.152344 526.457031 325.324219 520.726562 321.265625 C 514.203125 316.65625 512.324219 313.628906 512.324219 313.628906 C 512.324219 313.628906 510.371094 320.15625 519.414062 324.582031 C 528.453125 329.003906 541.28125 330.398438 547.957031 331.960938 C 554.628906 333.523438 567.902344 329.53125 568.945312 324.882812 C 568.945312 324.882812 579.386719 275.28125 580.511719 268.71875 C 581.023438 265.773438 581.609375 263.398438 581.820312 260.953125 C 582.074219 257.871094 581.871094 254.839844 581.621094 252.230469 C 581.058594 246.304688 579.191406 241.035156 576.390625 233.472656 C 571.371094 219.9375 571.730469 211.554688 571.730469 211.554688 L 566.9375 219.582031 " fill-opacity="1" fill-rule="nonzero"/><path fill="#cfeffc" d="M 572.382812 201.976562 C 572.382812 201.976562 571.46875 214.90625 573.414062 223.992188 C 573.414062 223.992188 554.375 211.816406 545.058594 217.867188 C 545.058594 217.867188 553.09375 211.46875 558.175781 198.683594 C 558.175781 198.683594 563.351562 197.097656 572.382812 201.976562 " fill-opacity="1" fill-rule="nonzero"/><path fill="#008696" d="M 577.039062 182.367188 C 577.039062 182.367188 571.402344 177.167969 561.621094 178.613281 L 561.695312 176.808594 C 561.695312 176.808594 559.9375 176.546875 560.148438 174.539062 C 560.148438 174.539062 562.550781 174 568.960938 175.523438 C 575.371094 177.039062 577.152344 177.753906 580.03125 179.203125 C 580.03125 179.203125 579.589844 180.875 578 180.269531 C 578 180.269531 577.597656 181.507812 577.039062 182.367188 " fill-opacity="1" fill-rule="nonzero"/><path fill="#b0e6fa" d="M 573.652344 224.078125 L 567.535156 220.765625 C 567.535156 220.765625 566.734375 218.800781 567.292969 211.605469 C 567.859375 204.417969 568.453125 200.15625 568.453125 200.15625 C 568.453125 200.15625 571.003906 201.039062 572.382812 201.976562 C 572.382812 201.976562 571.480469 216.550781 573.652344 224.078125 " fill-opacity="1" fill-rule="nonzero"/><path fill="#008696" d="M 568.453125 200.15625 C 568.453125 200.15625 572.191406 181.257812 573.667969 179.402344 L 577.039062 182.367188 C 577.039062 182.367188 572.566406 196.15625 572.382812 201.976562 L 568.453125 200.15625 " fill-opacity="1" fill-rule="nonzero"/><path fill="#4ac3cb" d="M 545.214844 222.746094 C 539.277344 227.894531 534.011719 236.03125 530.367188 242.960938 C 526.71875 249.890625 528.066406 245.628906 531.253906 237.800781 C 534.445312 229.976562 541.109375 224.078125 545.328125 220.925781 C 549.546875 217.773438 549.539062 218.996094 545.214844 222.746094 " fill-opacity="1" fill-rule="nonzero"/><path fill="#4ac3cb" d="M 563.585938 182.335938 C 563.027344 179.847656 563.027344 192.230469 560.878906 195.347656 C 560.878906 195.347656 565.585938 191.253906 563.585938 182.335938 " fill-opacity="1" fill-rule="nonzero"/><path fill="#4ac3cb" d="M 564.074219 172.292969 C 565.089844 172.585938 562.5 172.328125 562.316406 173.390625 C 562.132812 174.449219 560.257812 171.183594 564.074219 172.292969 " fill-opacity="1" fill-rule="nonzero"/><g clip-path="url(#id20)"><path fill="#a67c4e" d="M 566.964844 466.714844 L 586.207031 458.15625 L 604.898438 456.820312 L 606.011719 378.714844 L 607.566406 287.734375 L 591.230469 285.234375 L 589 280.289062 L 586.183594 282.832031 L 583.414062 277.890625 L 579.097656 280.289062 L 576.617188 275.046875 L 571.988281 277.214844 L 567.996094 271.253906 L 566.082031 316.664062 L 566.964844 466.714844 " fill-opacity="1" fill-rule="nonzero"/></g><g clip-path="url(#id21)"><path fill="#c9965f" d="M 566.964844 466.714844 L 546.875 466.558594 L 508.984375 460.378906 L 476.941406 459.011719 L 456.792969 456.28125 L 460.003906 406.128906 L 457.496094 321.308594 L 460.421875 282.160156 L 460.613281 278.699219 L 464.972656 281.582031 L 470.652344 278.109375 L 476.679688 280.988281 L 482.359375 277.511719 L 488.394531 280.398438 L 494.074219 276.921875 L 500.101562 279.808594 L 505.78125 276.332031 L 511.816406 279.21875 L 517.5 275.742188 L 523.53125 278.628906 L 529.210938 275.15625 L 535.238281 278.035156 L 540.925781 274.558594 L 546.953125 277.445312 L 552.640625 273.96875 L 558.671875 276.855469 L 567.996094 271.253906 L 566.582031 316.261719 L 570.550781 421.375 L 566.964844 466.714844 " fill-opacity="1" fill-rule="nonzero"/></g><path fill="#b08353" d="M 586.207031 458.15625 L 604.898438 456.820312 L 606.777344 337.925781 L 610.195312 280.824219 L 606.855469 283.96875 L 603.085938 280.667969 L 599.59375 283.785156 L 596.105469 280.46875 L 592.769531 283.574219 L 589 280.289062 L 586.207031 458.15625 " fill-opacity="1" fill-rule="nonzero"/><g clip-path="url(#id22)"><g clip-path="url(#id23)"><g clip-path="url(#id24)"><g clip-path="url(#id25)"><path fill="#000000" d="M 447.238281 330.351562 C 458.15625 365.402344 460.890625 376.089844 451.789062 389.171875 C 443.097656 401.679688 412.527344 412.652344 394.375 406.359375 C 377.035156 400.359375 371.90625 385.832031 364.335938 360.65625 L 317.746094 210.792969 L 251.101562 231.535156 L 294.453125 370.8125 C 309.542969 419.285156 323.792969 465.070312 384.648438 471.527344 C 412.605469 474.511719 468.515625 459.210938 494.53125 438.152344 C 541.949219 399.773438 527.75 354.164062 511.242188 301.128906 L 468.515625 163.859375 L 401.871094 184.605469 Z M 447.238281 330.351562 " fill-opacity="1" fill-rule="nonzero"/></g></g></g></g><g clip-path="url(#id26)"><path fill="#8cc63f" d="M 594.980469 489.664062 L 315.136719 489.664062 C 307.941406 489.664062 301.5625 485.035156 299.335938 478.1875 L 215.753906 221.503906 L 159.4375 221.503906 C 150.257812 221.503906 142.816406 214.058594 142.816406 204.875 C 142.816406 195.691406 150.257812 188.246094 159.4375 188.246094 L 227.820312 188.246094 C 235.015625 188.246094 241.394531 192.878906 243.621094 199.722656 L 327.203125 456.410156 L 582.261719 456.410156 L 632.59375 270.355469 C 634.992188 261.488281 644.113281 256.246094 652.976562 258.648438 C 661.835938 261.046875 667.074219 270.179688 664.675781 279.042969 L 611.023438 477.382812 C 609.0625 484.632812 602.488281 489.664062 594.980469 489.664062 Z M 594.980469 489.664062 " fill-opacity="1" fill-rule="nonzero"/></g><path fill="#8cc63f" d="M 648.636719 286.269531 L 255.171875 286.269531 C 245.992188 286.269531 238.550781 278.824219 238.550781 269.640625 C 238.550781 260.457031 245.992188 253.011719 255.171875 253.011719 L 648.636719 253.011719 C 657.8125 253.011719 665.253906 260.457031 665.253906 269.640625 C 665.253906 278.824219 657.8125 286.269531 648.636719 286.269531 Z M 648.636719 286.269531 " fill-opacity="1" fill-rule="nonzero"/><g clip-path="url(#id27)"><path fill="#8cc63f" d="M 365.988281 620.117188 C 332.261719 620.117188 304.824219 592.667969 304.824219 558.925781 C 304.824219 525.183594 332.261719 497.734375 365.988281 497.734375 C 399.710938 497.734375 427.148438 525.183594 427.148438 558.925781 C 427.148438 592.667969 399.710938 620.117188 365.988281 620.117188 Z M 365.988281 530.988281 C 350.589844 530.988281 338.066406 543.519531 338.066406 558.925781 C 338.066406 574.328125 350.589844 586.863281 365.988281 586.863281 C 381.382812 586.863281 393.910156 574.328125 393.910156 558.925781 C 393.910156 543.519531 381.382812 530.988281 365.988281 530.988281 Z M 365.988281 530.988281 " fill-opacity="1" fill-rule="nonzero"/></g><g clip-path="url(#id28)"><path fill="#8cc63f" d="M 552.214844 620.117188 C 518.492188 620.117188 491.054688 592.667969 491.054688 558.925781 C 491.054688 525.183594 518.492188 497.734375 552.214844 497.734375 C 585.941406 497.734375 613.378906 525.183594 613.378906 558.925781 C 613.378906 592.667969 585.941406 620.117188 552.214844 620.117188 Z M 552.214844 530.988281 C 536.820312 530.988281 524.292969 543.519531 524.292969 558.925781 C 524.292969 574.328125 536.820312 586.863281 552.214844 586.863281 C 567.613281 586.863281 580.140625 574.328125 580.140625 558.925781 C 580.140625 543.519531 567.613281 530.988281 552.214844 530.988281 Z M 552.214844 530.988281 " fill-opacity="1" fill-rule="nonzero"/></g></svg>